<mxfile host="app.diagrams.net" agent="Mozilla/5.0 (X11; Ubuntu; Linux x86_64; rv:139.0) Gecko/20100101 Firefox/139.0" version="27.1.6">
  <diagram name="Page-1" id="eHRggiPr1gdp9loOHu4-">
    <mxGraphModel dx="1425" dy="751" grid="1" gridSize="10" guides="1" tooltips="1" connect="1" arrows="1" fold="1" page="1" pageScale="1" pageWidth="850" pageHeight="1100" math="0" shadow="0">
      <root>
        <mxCell id="0" />
        <mxCell id="1" parent="0" />
        <mxCell id="hd-EQ8cnpKdnrIL3nM60-20" value="&amp;nbsp;" style="rounded=0;whiteSpace=wrap;html=1;dashed=1;" parent="1" vertex="1">
          <mxGeometry x="275.5" y="394" width="225" height="270" as="geometry" />
        </mxCell>
        <mxCell id="hd-EQ8cnpKdnrIL3nM60-19" value="&amp;nbsp;" style="rounded=0;whiteSpace=wrap;html=1;dashed=1;" parent="1" vertex="1">
          <mxGeometry x="267.5" y="402" width="225" height="270" as="geometry" />
        </mxCell>
        <mxCell id="hd-EQ8cnpKdnrIL3nM60-4" value="Process&amp;nbsp;" style="rounded=0;whiteSpace=wrap;dashed=1;verticalAlign=top;html=1;align=left;spacingLeft=2;spacing=0;spacingTop=-5;" parent="1" vertex="1">
          <mxGeometry x="259.5" y="410" width="225" height="270" as="geometry" />
        </mxCell>
        <mxCell id="hd-EQ8cnpKdnrIL3nM60-9" value="" style="rounded=0;whiteSpace=wrap;html=1;dashed=1;" parent="1" vertex="1">
          <mxGeometry x="300.5" y="544" width="160" height="100" as="geometry" />
        </mxCell>
        <mxCell id="hd-EQ8cnpKdnrIL3nM60-8" value="" style="rounded=0;whiteSpace=wrap;html=1;dashed=1;" parent="1" vertex="1">
          <mxGeometry x="292.5" y="552" width="160" height="100" as="geometry" />
        </mxCell>
        <mxCell id="hd-EQ8cnpKdnrIL3nM60-7" value="Process" style="rounded=0;whiteSpace=wrap;html=1;dashed=1;verticalAlign=top;align=left;spacing=0;spacingTop=-5;spacingLeft=2;" parent="1" vertex="1">
          <mxGeometry x="284.5" y="560" width="160" height="100" as="geometry" />
        </mxCell>
        <mxCell id="hd-EQ8cnpKdnrIL3nM60-27" style="edgeStyle=orthogonalEdgeStyle;rounded=0;orthogonalLoop=1;jettySize=auto;html=1;entryX=0.5;entryY=0;entryDx=0;entryDy=0;" parent="1" source="hd-EQ8cnpKdnrIL3nM60-1" target="hd-EQ8cnpKdnrIL3nM60-2" edge="1">
          <mxGeometry relative="1" as="geometry" />
        </mxCell>
        <mxCell id="hd-EQ8cnpKdnrIL3nM60-1" value="Across-Region Matching" style="rounded=1;whiteSpace=wrap;html=1;" parent="1" vertex="1">
          <mxGeometry x="320" y="140" width="120" height="60" as="geometry" />
        </mxCell>
        <mxCell id="hd-EQ8cnpKdnrIL3nM60-22" style="edgeStyle=orthogonalEdgeStyle;rounded=0;orthogonalLoop=1;jettySize=auto;html=1;" parent="1" source="hd-EQ8cnpKdnrIL3nM60-2" target="hd-EQ8cnpKdnrIL3nM60-4" edge="1">
          <mxGeometry relative="1" as="geometry">
            <Array as="points">
              <mxPoint x="380" y="345" />
              <mxPoint x="330" y="345" />
            </Array>
          </mxGeometry>
        </mxCell>
        <mxCell id="hd-EQ8cnpKdnrIL3nM60-26" value="&lt;div&gt;Connected&lt;/div&gt;&lt;div&gt;Components&lt;/div&gt;" style="edgeLabel;html=1;align=center;verticalAlign=middle;resizable=0;points=[];" parent="hd-EQ8cnpKdnrIL3nM60-22" vertex="1" connectable="0">
          <mxGeometry x="-0.048" relative="1" as="geometry">
            <mxPoint x="-8" y="-23" as="offset" />
          </mxGeometry>
        </mxCell>
        <mxCell id="hd-EQ8cnpKdnrIL3nM60-24" style="edgeStyle=orthogonalEdgeStyle;rounded=0;orthogonalLoop=1;jettySize=auto;html=1;" parent="1" source="hd-EQ8cnpKdnrIL3nM60-2" target="hd-EQ8cnpKdnrIL3nM60-19" edge="1">
          <mxGeometry relative="1" as="geometry" />
        </mxCell>
        <mxCell id="hd-EQ8cnpKdnrIL3nM60-25" style="edgeStyle=orthogonalEdgeStyle;rounded=0;orthogonalLoop=1;jettySize=auto;html=1;entryX=0.687;entryY=-0.001;entryDx=0;entryDy=0;entryPerimeter=0;" parent="1" target="hd-EQ8cnpKdnrIL3nM60-20" edge="1">
          <mxGeometry relative="1" as="geometry">
            <mxPoint x="430" y="380" as="targetPoint" />
            <mxPoint x="380" y="285" as="sourcePoint" />
            <Array as="points">
              <mxPoint x="380" y="345" />
              <mxPoint x="430" y="345" />
            </Array>
          </mxGeometry>
        </mxCell>
        <mxCell id="hd-EQ8cnpKdnrIL3nM60-2" value="Merging-Graph Construction" style="rounded=1;whiteSpace=wrap;html=1;" parent="1" vertex="1">
          <mxGeometry x="320" y="240" width="120" height="60" as="geometry" />
        </mxCell>
        <mxCell id="hd-EQ8cnpKdnrIL3nM60-14" style="edgeStyle=orthogonalEdgeStyle;rounded=0;orthogonalLoop=1;jettySize=auto;html=1;entryX=0.25;entryY=0;entryDx=0;entryDy=0;" parent="1" target="hd-EQ8cnpKdnrIL3nM60-7" edge="1">
          <mxGeometry relative="1" as="geometry">
            <mxPoint x="374.5" y="487" as="sourcePoint" />
            <mxPoint x="324.5" y="557" as="targetPoint" />
            <Array as="points">
              <mxPoint x="374.5" y="517" />
              <mxPoint x="324.5" y="517" />
            </Array>
          </mxGeometry>
        </mxCell>
        <mxCell id="hd-EQ8cnpKdnrIL3nM60-23" value="&lt;div&gt;Clusters&lt;/div&gt;" style="edgeLabel;html=1;align=center;verticalAlign=middle;resizable=0;points=[];" parent="hd-EQ8cnpKdnrIL3nM60-14" vertex="1" connectable="0">
          <mxGeometry x="-0.0355" relative="1" as="geometry">
            <mxPoint x="4" y="-15" as="offset" />
          </mxGeometry>
        </mxCell>
        <mxCell id="hd-EQ8cnpKdnrIL3nM60-15" style="edgeStyle=orthogonalEdgeStyle;rounded=0;orthogonalLoop=1;jettySize=auto;html=1;entryX=0.776;entryY=0.001;entryDx=0;entryDy=0;entryPerimeter=0;" parent="1" source="hd-EQ8cnpKdnrIL3nM60-3" target="hd-EQ8cnpKdnrIL3nM60-9" edge="1">
          <mxGeometry relative="1" as="geometry">
            <mxPoint x="434.5" y="544" as="targetPoint" />
            <Array as="points">
              <mxPoint x="374.5" y="517" />
              <mxPoint x="424.5" y="517" />
              <mxPoint x="424.5" y="544" />
            </Array>
          </mxGeometry>
        </mxCell>
        <mxCell id="hd-EQ8cnpKdnrIL3nM60-3" value="Vehicle Record Cluster Merging" style="rounded=1;whiteSpace=wrap;html=1;" parent="1" vertex="1">
          <mxGeometry x="314.5" y="430" width="120" height="60" as="geometry" />
        </mxCell>
        <mxCell id="hd-EQ8cnpKdnrIL3nM60-6" value="Map-Matching" style="rounded=1;whiteSpace=wrap;html=1;" parent="1" vertex="1">
          <mxGeometry x="304.5" y="580" width="120" height="60" as="geometry" />
        </mxCell>
        <mxCell id="hd-EQ8cnpKdnrIL3nM60-18" style="edgeStyle=orthogonalEdgeStyle;rounded=0;orthogonalLoop=1;jettySize=auto;html=1;entryX=0.516;entryY=0.011;entryDx=0;entryDy=0;entryPerimeter=0;" parent="1" source="hd-EQ8cnpKdnrIL3nM60-3" target="hd-EQ8cnpKdnrIL3nM60-8" edge="1">
          <mxGeometry relative="1" as="geometry" />
        </mxCell>
        <mxCell id="G-ok6_CKttz6DIKtsCLN-1" value="&amp;nbsp;" style="rounded=0;whiteSpace=wrap;html=1;dashed=1;" parent="1" vertex="1">
          <mxGeometry x="275.5" y="394" width="225" height="270" as="geometry" />
        </mxCell>
        <mxCell id="G-ok6_CKttz6DIKtsCLN-2" value="&amp;nbsp;" style="rounded=0;whiteSpace=wrap;html=1;dashed=1;" parent="1" vertex="1">
          <mxGeometry x="267.5" y="402" width="225" height="270" as="geometry" />
        </mxCell>
        <mxCell id="G-ok6_CKttz6DIKtsCLN-3" value="Process&amp;nbsp;" style="rounded=0;whiteSpace=wrap;dashed=1;verticalAlign=top;html=1;align=left;spacingLeft=2;spacing=0;spacingTop=-5;" parent="1" vertex="1">
          <mxGeometry x="259.5" y="410" width="225" height="270" as="geometry" />
        </mxCell>
        <mxCell id="G-ok6_CKttz6DIKtsCLN-4" value="" style="rounded=0;whiteSpace=wrap;html=1;dashed=1;" parent="1" vertex="1">
          <mxGeometry x="300.5" y="544" width="160" height="100" as="geometry" />
        </mxCell>
        <mxCell id="G-ok6_CKttz6DIKtsCLN-5" value="" style="rounded=0;whiteSpace=wrap;html=1;dashed=1;" parent="1" vertex="1">
          <mxGeometry x="292.5" y="552" width="160" height="100" as="geometry" />
        </mxCell>
        <mxCell id="G-ok6_CKttz6DIKtsCLN-6" value="Process" style="rounded=0;whiteSpace=wrap;html=1;dashed=1;verticalAlign=top;align=left;spacing=0;spacingTop=-5;spacingLeft=2;" parent="1" vertex="1">
          <mxGeometry x="284.5" y="560" width="160" height="100" as="geometry" />
        </mxCell>
        <mxCell id="G-ok6_CKttz6DIKtsCLN-7" style="edgeStyle=orthogonalEdgeStyle;rounded=0;orthogonalLoop=1;jettySize=auto;html=1;entryX=0.5;entryY=0;entryDx=0;entryDy=0;" parent="1" source="G-ok6_CKttz6DIKtsCLN-8" target="G-ok6_CKttz6DIKtsCLN-13" edge="1">
          <mxGeometry relative="1" as="geometry" />
        </mxCell>
        <mxCell id="BIGJF0D-FA4iuOLYO6SE-1" value="Cluster Pairs" style="edgeLabel;html=1;align=center;verticalAlign=middle;resizable=0;points=[];" vertex="1" connectable="0" parent="G-ok6_CKttz6DIKtsCLN-7">
          <mxGeometry x="-0.08" relative="1" as="geometry">
            <mxPoint x="-38" y="-1" as="offset" />
          </mxGeometry>
        </mxCell>
        <mxCell id="G-ok6_CKttz6DIKtsCLN-8" value="Across-Region Matching" style="rounded=1;whiteSpace=wrap;html=1;" parent="1" vertex="1">
          <mxGeometry x="320" y="140" width="120" height="60" as="geometry" />
        </mxCell>
        <mxCell id="G-ok6_CKttz6DIKtsCLN-9" style="edgeStyle=orthogonalEdgeStyle;rounded=0;orthogonalLoop=1;jettySize=auto;html=1;" parent="1" source="G-ok6_CKttz6DIKtsCLN-13" target="G-ok6_CKttz6DIKtsCLN-3" edge="1">
          <mxGeometry relative="1" as="geometry">
            <Array as="points">
              <mxPoint x="380" y="345" />
              <mxPoint x="330" y="345" />
            </Array>
          </mxGeometry>
        </mxCell>
        <mxCell id="G-ok6_CKttz6DIKtsCLN-10" value="&lt;div&gt;Connected&lt;/div&gt;&lt;div&gt;Components&lt;/div&gt;" style="edgeLabel;html=1;align=center;verticalAlign=middle;resizable=0;points=[];" parent="G-ok6_CKttz6DIKtsCLN-9" vertex="1" connectable="0">
          <mxGeometry x="-0.048" relative="1" as="geometry">
            <mxPoint x="-8" y="-23" as="offset" />
          </mxGeometry>
        </mxCell>
        <mxCell id="G-ok6_CKttz6DIKtsCLN-11" style="edgeStyle=orthogonalEdgeStyle;rounded=0;orthogonalLoop=1;jettySize=auto;html=1;" parent="1" source="G-ok6_CKttz6DIKtsCLN-13" target="G-ok6_CKttz6DIKtsCLN-2" edge="1">
          <mxGeometry relative="1" as="geometry" />
        </mxCell>
        <mxCell id="G-ok6_CKttz6DIKtsCLN-12" style="edgeStyle=orthogonalEdgeStyle;rounded=0;orthogonalLoop=1;jettySize=auto;html=1;entryX=0.687;entryY=-0.001;entryDx=0;entryDy=0;entryPerimeter=0;" parent="1" target="G-ok6_CKttz6DIKtsCLN-1" edge="1">
          <mxGeometry relative="1" as="geometry">
            <mxPoint x="430" y="380" as="targetPoint" />
            <mxPoint x="380" y="285" as="sourcePoint" />
            <Array as="points">
              <mxPoint x="380" y="345" />
              <mxPoint x="430" y="345" />
            </Array>
          </mxGeometry>
        </mxCell>
        <mxCell id="G-ok6_CKttz6DIKtsCLN-13" value="Merging Graph Construction" style="rounded=1;whiteSpace=wrap;html=1;" parent="1" vertex="1">
          <mxGeometry x="320" y="240" width="120" height="60" as="geometry" />
        </mxCell>
        <mxCell id="G-ok6_CKttz6DIKtsCLN-14" style="edgeStyle=orthogonalEdgeStyle;rounded=0;orthogonalLoop=1;jettySize=auto;html=1;entryX=0.25;entryY=0;entryDx=0;entryDy=0;" parent="1" target="G-ok6_CKttz6DIKtsCLN-6" edge="1">
          <mxGeometry relative="1" as="geometry">
            <mxPoint x="374.5" y="487" as="sourcePoint" />
            <mxPoint x="324.5" y="557" as="targetPoint" />
            <Array as="points">
              <mxPoint x="374.5" y="517" />
              <mxPoint x="324.5" y="517" />
            </Array>
          </mxGeometry>
        </mxCell>
        <mxCell id="G-ok6_CKttz6DIKtsCLN-15" value="&lt;div&gt;Clusters&lt;/div&gt;" style="edgeLabel;html=1;align=center;verticalAlign=middle;resizable=0;points=[];" parent="G-ok6_CKttz6DIKtsCLN-14" vertex="1" connectable="0">
          <mxGeometry x="-0.0355" relative="1" as="geometry">
            <mxPoint x="4" y="-15" as="offset" />
          </mxGeometry>
        </mxCell>
        <mxCell id="G-ok6_CKttz6DIKtsCLN-16" style="edgeStyle=orthogonalEdgeStyle;rounded=0;orthogonalLoop=1;jettySize=auto;html=1;entryX=0.776;entryY=0.001;entryDx=0;entryDy=0;entryPerimeter=0;" parent="1" source="G-ok6_CKttz6DIKtsCLN-17" target="G-ok6_CKttz6DIKtsCLN-4" edge="1">
          <mxGeometry relative="1" as="geometry">
            <mxPoint x="434.5" y="544" as="targetPoint" />
            <Array as="points">
              <mxPoint x="374.5" y="517" />
              <mxPoint x="424.5" y="517" />
              <mxPoint x="424.5" y="544" />
            </Array>
          </mxGeometry>
        </mxCell>
        <mxCell id="G-ok6_CKttz6DIKtsCLN-17" value="Vehicle Record Cluster Merging" style="rounded=1;whiteSpace=wrap;html=1;" parent="1" vertex="1">
          <mxGeometry x="314.5" y="430" width="120" height="60" as="geometry" />
        </mxCell>
        <mxCell id="G-ok6_CKttz6DIKtsCLN-18" value="Map-Matching" style="rounded=1;whiteSpace=wrap;html=1;" parent="1" vertex="1">
          <mxGeometry x="304.5" y="580" width="120" height="60" as="geometry" />
        </mxCell>
        <mxCell id="G-ok6_CKttz6DIKtsCLN-19" style="edgeStyle=orthogonalEdgeStyle;rounded=0;orthogonalLoop=1;jettySize=auto;html=1;entryX=0.516;entryY=0.011;entryDx=0;entryDy=0;entryPerimeter=0;" parent="1" source="G-ok6_CKttz6DIKtsCLN-17" target="G-ok6_CKttz6DIKtsCLN-5" edge="1">
          <mxGeometry relative="1" as="geometry" />
        </mxCell>
      </root>
    </mxGraphModel>
  </diagram>
</mxfile>
